<svg width="286" height="258" viewBox="0 0 286 258" fill="none" xmlns="http://www.w3.org/2000/svg">
<path d="M143.113 216.602C202.788 216.602 251.164 168.226 251.164 108.551C251.164 48.8761 202.788 0.5 143.113 0.5C83.4377 0.5 35.0615 48.8761 35.0615 108.551C35.0615 168.226 83.4377 216.602 143.113 216.602Z" fill="white"/>
<path d="M109.673 185.08C107.489 182.168 104.749 179.799 101.453 177.946C98.1442 176.106 94.2132 175.18 89.6203 175.18H84.326C82.5921 175.18 80.8847 175.286 79.2037 175.511C81.9965 167.9 84.6569 160.541 87.1717 153.433C89.6865 146.326 91.9234 139.946 93.8823 134.294C95.8412 128.643 97.4692 123.944 98.7531 120.198C100.037 116.452 100.844 114.136 101.188 113.236C101.864 111.78 101.162 110.046 99.0972 108.034C97.0192 106.022 94.5308 104.116 91.6322 102.33C88.7203 100.543 85.9011 99.0074 83.1612 97.7103C80.4214 96.4264 78.7669 95.7778 78.211 95.7778C77.4301 97.1147 76.583 98.5706 75.6962 100.146C74.9153 101.602 73.9623 103.283 72.8373 105.175C71.7122 107.081 70.5475 109.146 69.3165 111.383C67.5297 109.477 65.1472 107.664 62.1824 105.93C59.2175 104.196 56.0806 102.687 52.7849 101.403C49.4892 100.119 46.3258 99.0868 43.308 98.2926C40.2902 97.5117 37.7622 97.1147 35.7503 97.1147C34.4135 97.1147 32.812 98.0147 30.9722 99.8015C29.1324 101.588 27.2 103.971 25.1749 106.936C23.163 109.901 21.1512 113.315 19.1261 117.18C17.1142 121.045 15.3274 124.989 13.7523 129.013C12.1905 133.037 10.8934 137.047 9.88744 141.018C8.88151 144.989 8.37855 148.602 8.37855 151.845C8.37855 153.751 9.58302 155.842 11.9919 158.132C14.4009 160.422 17.2466 162.606 20.5556 164.684C23.8513 166.762 27.2397 168.655 30.7075 170.388C34.1753 172.122 37.0342 173.433 39.2711 174.333C40.3829 175.008 41.5079 175.339 42.633 175.339C43.4139 175.339 44.764 174.002 46.6567 171.315C48.5627 168.628 50.7731 165.16 53.2879 160.912C55.8027 156.663 58.5425 151.871 61.5073 146.564C64.4722 141.256 67.4105 135.962 70.3224 130.707C68.0856 138.212 65.5443 146.087 62.6853 154.373C59.8264 162.659 56.8351 170.931 53.7114 179.217C45.6508 181.123 38.3181 183.585 31.7266 186.602C25.1219 189.62 19.4702 192.982 14.7715 196.675C10.0727 200.368 6.43288 204.259 3.86512 208.336C1.29736 212.426 0.000244141 216.529 0.000244141 220.672C0.000244141 228.613 1.15176 234.993 3.44157 239.811C5.73138 244.615 8.59033 248.374 12.0052 251.061C15.42 253.748 19.0599 255.535 22.9115 256.435C26.7764 257.335 30.2707 257.772 33.4076 257.772C35.8695 257.772 38.6093 256.117 41.6271 252.821C44.6448 249.526 47.7553 245.131 50.9451 239.652C54.135 234.172 57.3778 227.819 60.6867 220.605C63.9825 213.392 67.2517 205.808 70.5077 197.866C76.7683 197.972 82.0362 198.766 86.2849 200.222C90.5336 201.678 93.9485 203.518 96.5295 205.768C99.0972 208.005 100.924 210.493 101.983 213.233C103.042 215.973 103.584 218.58 103.584 221.042C103.584 222.048 104.233 222.127 105.517 221.294C106.801 220.46 108.256 219.163 109.884 217.429C111.499 215.695 112.968 213.762 114.252 211.631C115.536 209.5 116.185 207.661 116.185 206.086C116.185 202.393 115.655 198.7 114.583 195.007C113.524 191.314 111.896 188.019 109.712 185.107L109.673 185.08ZM59.9058 127.173C57.4439 131.197 55.035 135.088 52.6923 138.834C50.3495 142.58 48.0729 146.114 45.889 149.41C43.7051 152.705 41.7462 155.419 40.0123 157.55C38.2784 159.681 36.9019 161.137 35.8959 161.917C34.89 162.698 34.3341 162.473 34.215 161.242C34.5459 159.006 35.2209 156.292 36.2268 153.102C37.2328 149.913 38.4372 146.551 39.8402 143.03C41.2432 139.509 42.7786 136.041 44.4595 132.626C46.1405 129.212 47.9009 126.141 49.7407 123.401C51.5804 120.661 53.4599 118.451 55.3659 116.77C57.2719 115.089 59.0587 114.255 60.7397 114.255C61.9706 114.255 63.0559 114.401 64.0089 114.679C64.9619 114.957 65.8752 115.261 66.7752 115.605C64.6442 119.298 62.3544 123.163 59.8926 127.187L59.9058 127.173ZM38.0799 217.561C35.843 222.538 33.8047 226.853 31.9516 230.479C30.1119 234.119 28.4309 236.965 26.922 239.043C25.4131 241.108 24.2616 242.153 23.4807 242.153C23.2557 242.153 22.9512 241.981 22.5542 241.65C22.1571 241.319 21.7733 240.565 21.3762 239.387C20.9791 238.209 20.6482 236.502 20.3703 234.265C20.0923 232.028 19.9467 228.944 19.9467 225.039C19.9467 219.891 22.263 215.245 26.9088 211.102C31.5546 206.959 37.5637 203.716 44.9493 201.36C42.5933 207.184 40.3035 212.571 38.0666 217.561H38.0799Z" fill="#FF8C1E"/>
<path d="M149.963 125.823C150.439 124.685 150.916 123.52 151.392 122.382L121.678 161.917C122.578 156.319 123.941 150.561 125.794 144.631C127.634 138.702 129.566 133.129 131.591 127.928C133.603 122.726 135.509 118.199 137.296 114.334C139.083 110.47 140.314 107.756 140.989 106.194C141.439 105.294 141.214 104.236 140.314 103.005C139.414 101.774 138.183 100.516 136.621 99.2324C135.059 97.9485 133.259 96.6911 131.247 95.4601C129.235 94.2292 127.303 93.1439 125.45 92.1909C123.597 91.2379 121.982 90.457 120.579 89.8349C119.176 89.226 118.316 88.9084 117.972 88.9084C117.972 89.3584 117.416 90.8938 116.291 93.5277C115.166 96.1616 113.776 99.4574 112.095 103.428C110.414 107.399 108.574 111.82 106.562 116.69C104.551 121.561 102.698 126.459 101.03 131.382C99.3488 136.306 97.9591 141.058 96.834 145.651C95.7222 150.243 95.1531 154.161 95.1531 157.404C95.1531 159.085 96.1325 160.991 98.0914 163.109C100.05 165.24 102.367 167.304 105.054 169.316C107.74 171.328 110.454 173.115 113.194 174.69C115.933 176.252 118.091 177.324 119.653 177.88C120.553 178.436 121.413 178.939 122.26 179.389C123.094 179.839 123.968 180.064 124.854 180.064C125.185 180.064 126.006 179.256 127.29 177.628C128.574 176 130.175 173.856 132.068 171.169C133.908 168.575 135.933 165.624 138.156 162.341C138.58 158.675 139.652 154.174 141.386 148.854C143.676 141.799 146.535 134.135 149.95 125.863L149.963 125.823Z" fill="#FF8C1E"/>
<path d="M124.867 77.0755C127.223 79.0344 129.844 80.7948 132.756 82.3567C135.668 83.9317 138.487 85.1891 141.227 86.1289C143.967 87.0819 145.727 87.5584 146.521 87.5584C146.521 86.3274 146.852 84.62 147.527 82.4361C148.202 80.2521 149.036 77.9359 150.042 75.474C151.048 73.0121 152.107 70.5238 153.232 68.009C154.344 65.4942 155.35 63.2308 156.25 61.2057C156.7 60.3057 156.475 59.2468 155.575 58.0159C154.675 56.7849 153.444 55.5275 151.882 54.2437C150.32 52.9598 148.52 51.7024 146.508 50.4714C144.496 49.2405 142.564 48.1552 140.711 47.2022C138.858 46.2492 137.243 45.4683 135.84 44.8462C134.437 44.2373 133.577 43.9197 133.232 43.9197C133.232 44.7006 132.61 46.1301 131.393 48.1949C130.162 50.2729 128.785 52.6421 127.276 55.329C125.767 58.0159 124.391 60.7822 123.16 63.6411C121.929 66.5001 121.307 69.0414 121.307 71.2782C121.307 73.1842 122.485 75.1166 124.828 77.0755H124.867Z" fill="#FF8C1E"/>
<path d="M228.597 99.8148C227.26 97.5779 225.685 95.566 223.898 93.7792C222.111 91.9923 220.205 91.0923 218.194 91.0923C216.288 91.0923 213.826 92.0718 210.808 94.0307C207.79 95.9896 204.455 98.597 200.828 101.84C197.188 105.083 193.443 108.828 189.578 113.09C185.713 117.339 181.941 121.707 178.248 126.181C181.266 119.47 184.376 112.839 187.566 106.287C190.756 99.7353 193.668 93.7792 196.288 88.4054C198.922 83.0317 201.066 78.505 202.747 74.8122C204.428 71.1194 205.262 68.7634 205.262 67.7575C205.262 65.5206 204.111 63.3102 201.821 61.1263C199.531 58.9424 196.95 57.0099 194.104 55.329C191.245 53.648 188.506 52.2847 185.885 51.2126C183.251 50.1538 181.61 49.6111 180.935 49.6111C181.61 50.617 180.988 53.5818 179.095 58.5056C177.189 63.4293 174.648 69.5046 171.458 76.7182C168.268 83.9317 164.747 91.86 160.882 100.463C157.56 107.889 154.397 115.182 151.405 122.355L157.772 113.884C158.884 112.323 159.903 111.529 160.79 111.529C161.571 111.529 162.272 112.283 162.881 113.792C163.49 115.301 163.807 118.358 163.807 122.938C156.978 133.566 150.823 143.083 145.343 151.474C142.987 155.061 140.671 158.556 138.381 161.97C138.315 162.076 138.236 162.182 138.17 162.288C138.037 163.466 137.958 164.578 137.958 165.584C137.958 167.94 139.162 170.256 141.571 172.546C143.98 174.836 146.72 176.887 149.791 178.674C152.861 180.461 155.853 181.917 158.765 183.042C161.676 184.154 163.569 184.723 164.469 184.723C164.363 184.498 164.297 184.273 164.297 184.048C164.297 183.823 164.271 183.598 164.218 183.373C164.165 183.148 164.138 182.817 164.138 182.367C164.694 181.03 165.541 179.058 166.653 176.49C167.765 173.909 169.009 171.262 170.346 168.522C171.683 165.782 173.059 163.175 174.462 160.713C175.865 158.251 177.123 156.464 178.235 155.339C180.591 166.868 183.714 177.099 187.632 186.06C189.313 189.858 191.245 193.617 193.429 197.31C195.613 201.003 198.075 204.272 200.815 207.131C203.555 209.99 206.573 212.28 209.882 214.014C213.177 215.748 216.791 216.608 220.708 216.608C223.501 216.608 226.135 215.907 228.597 214.517C231.059 213.114 233.124 211.552 234.805 209.818C236.486 208.084 237.624 206.522 238.246 205.119C238.855 203.716 238.722 203.028 237.822 203.028C234.911 203.028 231.747 201.797 228.332 199.335C224.917 196.873 221.556 193.684 218.26 189.766C214.964 185.848 211.774 181.507 208.69 176.755C205.606 172.003 202.866 167.304 200.471 162.659C198.062 158.013 196.169 153.738 194.766 149.82C193.363 145.902 192.675 142.831 192.675 140.581C194.806 137.338 197.705 133.924 201.397 130.337C204.534 127.319 208.664 123.878 213.813 120.013C218.551 116.452 224.388 112.879 231.31 109.278C231.668 108.431 232.012 107.597 232.356 106.777C231.138 104.262 229.881 101.919 228.584 99.7883L228.597 99.8148Z" fill="#FF8C1E"/>
<path d="M145.343 151.514C150.823 143.123 156.978 133.606 163.807 122.978C163.807 118.385 163.503 115.34 162.881 113.832C162.259 112.323 161.557 111.568 160.789 111.568C159.889 111.568 158.884 112.349 157.772 113.924L151.405 122.395C150.929 123.547 150.439 124.698 149.976 125.837C146.561 134.122 143.715 141.786 141.412 148.827C139.678 154.161 138.606 158.648 138.183 162.315C138.249 162.209 138.328 162.103 138.394 161.997C140.684 158.582 143.014 155.088 145.356 151.501L145.343 151.514Z" fill="#FF8C1E"/>
<path d="M246.558 77.0755C248.914 79.0344 251.535 80.7948 254.447 82.3567C257.359 83.9317 260.178 85.1891 262.918 86.1289C265.658 87.0819 267.418 87.5584 268.212 87.5584C268.212 86.3274 268.543 84.62 269.218 82.4361C269.893 80.2521 270.727 77.9359 271.733 75.474C272.739 73.0121 273.798 70.5238 274.923 68.009C276.035 65.4942 277.04 63.2308 277.94 61.2057C278.391 60.3057 278.166 59.2468 277.265 58.0159C276.365 56.7849 275.134 55.5275 273.573 54.2437C272.011 52.9598 270.211 51.7024 268.199 50.4714C266.187 49.2405 264.255 48.1552 262.402 47.2022C260.549 46.2492 258.934 45.4683 257.531 44.8462C256.128 44.2373 255.267 43.9197 254.923 43.9197C254.923 44.7006 254.301 46.1301 253.084 48.1949C251.853 50.2729 250.476 52.6421 248.967 55.329C247.458 58.0159 246.082 60.7822 244.851 63.6411C243.62 66.5001 242.998 69.0414 242.998 71.2782C242.998 73.1842 244.176 75.1166 246.519 77.0755H246.558Z" fill="#FF8C1E"/>
<path d="M284.571 113.832C283.949 112.323 283.248 111.568 282.48 111.568C281.58 111.568 280.574 112.349 279.462 113.924L243.381 161.931C244.281 156.332 245.645 150.574 247.498 144.645C249.338 138.715 251.27 133.143 253.295 127.941C255.307 122.739 257.213 118.213 259 114.348C260.787 110.483 262.018 107.77 262.693 106.208C263.143 105.308 262.918 104.249 262.018 103.018C261.118 101.787 259.887 100.529 258.325 99.2456C256.763 97.9617 254.963 96.7043 252.951 95.4734C250.939 94.2425 249.007 93.1571 247.154 92.2041C245.301 91.2511 243.686 90.4702 242.283 89.8481C240.88 89.2393 240.02 88.9216 239.675 88.9216C239.675 89.3717 239.119 90.907 237.994 93.541C236.869 96.1749 235.48 99.4706 233.799 103.441C233.335 104.527 232.859 105.665 232.369 106.817C232.621 107.333 232.872 107.849 233.124 108.392C232.515 108.709 231.919 109.014 231.324 109.318C230.344 111.648 229.325 114.109 228.253 116.69C226.241 121.561 224.388 126.459 222.72 131.382C221.039 136.306 219.65 141.058 218.524 145.651C217.413 150.243 216.844 154.161 216.844 157.404C216.844 159.085 217.823 160.991 219.782 163.109C221.741 165.24 224.057 167.304 226.744 169.316C229.431 171.328 232.144 173.115 234.884 174.69C237.624 176.252 239.781 177.324 241.343 177.88C242.243 178.436 243.103 178.939 243.951 179.389C244.784 179.839 245.658 180.064 246.545 180.064C246.876 180.064 247.696 179.256 248.98 177.628C250.264 176 251.866 173.856 253.758 171.169C255.664 168.482 257.756 165.438 260.059 162.023C262.348 158.609 264.678 155.114 267.021 151.527C272.5 143.136 278.655 133.619 285.485 122.991C285.485 118.398 285.18 115.354 284.558 113.845L284.571 113.832Z" fill="#FF8C1E"/>
<path d="M232.369 106.803C232.025 107.624 231.681 108.458 231.323 109.305C231.919 109.001 232.515 108.683 233.124 108.378C232.872 107.849 232.621 107.333 232.369 106.803V106.803Z" fill="#FF8C1E"/>
</svg>
